Coordinates
version=1
nRows=17
nColumns=24
inDegrees=yes

Units are S.I. units (second, meters, Newtons, ...)
If the header above contains a line with 'inDegrees', this indicates whether rotational values are in degrees (yes) or radians (no).

endheader
time	pelvis_tilt	pelvis_list	pelvis_rotation	pelvis_tx	pelvis_ty	pelvis_tz	hip_flexion_r	hip_adduction_r	hip_rotation_r	knee_angle_r	ankle_angle_r	subtalar_angle_r	mtp_angle_r	hip_flexion_l	hip_adduction_l	hip_rotation_l	knee_angle_l	ankle_angle_l	subtalar_angle_l	mtp_angle_l	lumbar_extension	lumbar_bending	lumbar_rotation
0.5	5.339471021618856	0.29390930761433903	0.22724178769455544	0.8736855591976085	0.39872537129514507	0.006656012751574427	19.762871522613633	-4.795042508239432	-9.522997727499034	-20.052004396570144	0.9632170713941332	0.20316852781472836	0.18065481703394293	-14.226438451298545	3.1801765149345687	-0.40991835502270446	-1.71181162944682	8.117177139798194	-0.41161481790013793	0.5445001329072499	-16.877498040746087	-2.404092459645075	-5.171663635418173
0.517	4.445832087206628	1.7105805666269063	-0.36684841205320684	0.7428954806270675	0.9273956674484855	0.29294339320456486	18.926095237183134	-4.835055242153207	-10.023557296515037	-13.944021195343135	0.06268958438582362	0.1754617594949271	-0.4194952037424779	-15.293969541525227	3.9039379681416744	0.13394903994490803	-1.9883930788074793	8.724937564765854	-0.15499373145579456	0.5222071892700777	-16.644854823960085	-3.8428649316687578	-5.90726559695961
0.533	4.079935014438189	1.1259912274299058	0.04327636220756624	0.8668275803937993	1.3060977637083595	0.7063726336918463	17.85659718595742	-4.373892724355873	-9.194420665448984	-8.175123779603807	-0.5812478558055548	0.7005291251523772	-0.8289226168029566	-17.834045709993585	4.635960591412903	1.0079663524880302	-1.1854179038028785	8.05750360928934	-0.4999302274853596	0.28507230707726705	-16.885611796484007	-3.9842344127470986	-5.995027938825204
0.55	4.029895356691854	2.5195150123665138	0.9291381288878454	-0.15433738346046022	1.2685117467217115	-0.7484514337959344	18.307745812307125	-5.67799608672935	-7.28138126746739	-3.3735422610999612	0.5290967497104158	0.25580122750389306	0.6982744238601347	-17.576315862588107	5.467947547861716	1.1344848596430992	-0.5667654951300101	9.170061394216837	0.32847699682806464	-0.26215339346608274	-17.401326812015384	-4.98143021553532	-5.882139311352535
0.567	4.173633158479025	2.6190898986583173	-0.04161344013403656	0.1904969233498533	1.4013779907259891	0.09421740289563657	17.936215717074138	-4.825153775756375	-6.08599153556246	-0.5800479023387674	1.2466526322480178	-0.2771098337851792	0.5036923081187997	-19.198305255319106	5.649151605229524	1.4106211678320053	-0.8916541241257337	9.876785348101311	-0.20463879832783902	-0.16478485445064076	-16.88202230403655	-4.333312566675182	-6.514818091597148
0.583	3.3282224448387243	3.0174995973493686	0.6005827500432419	0.4728750183775279	1.315109612582887	-0.49009264561169325	18.9993673798056	-6.138041498471523	-5.134228608315338	0.7501557010004248	2.035960478876776	-0.6377821887075241	-0.5508561093845468	-19.86456197977243	5.984267072059721	3.1926883383394644	-0.8955482673124497	10.561202750034857	0.22244440643903016	0.2491156694965597	-16.751889210768248	-4.416446799235492	-4.940330977268416
0.6	3.932900864590328	3.3356089990089623	0.13600342183584324	-0.03707892993736328	0.7414959539810675	-0.09004378791131853	18.00902667632996	-4.610928336366897	-4.20321558873829	1.4329228848210445	1.6790106479494893	0.28967315577057123	0.6107112735697126	-21.12764245273629	6.0267014917660955	2.387467548773088	-2.197738718108539	10.470090071532312	0.08268299919230412	0.7443600873287262	-16.611624886821286	-3.3439745756458104	-5.943841224481371
0.617	4.400272122004989	2.5999349197960737	0.5841614808501214	1.452006048506545	1.2252812916658873	0.6111293641049316	18.71735525302492	-5.715706423785018	-4.494355331771049	-0.35380898434641417	2.697786498441839	-0.22020036167872598	-0.34464234338208727	-22.601116742868108	3.7913670759448985	2.5233181434770944	-3.0316468548923847	11.878049935268237	-0.3661721864663848	-0.4786979602738407	-16.896605415023046	-3.1427880774636088	-5.248611019770377
0.633	3.3534254213847103	2.5323001398575653	2.535949899801245	0.8191360811264949	1.673930568206142	0.27695978226757484	20.10821081350387	-4.441158554135071	-4.9057696932773505	-3.8063429957207378	0.7299995869513947	-1.255332826419109	0.389847248014627	-21.96193876462638	4.560204342431619	3.0170906404627873	-5.183330216860822	11.983183860990009	-0.016581530386618117	-0.0696348915547899	-17.04644068299793	-2.8655962545810065	-6.1491467160178415
0.65	2.983511765730769	2.67826437761536	2.0131919447592734	1.130646155042663	1.248261283183875	0.6137137000062367	19.869232307908522	-3.957797873811703	-6.007948235964992	-6.4827715194334905	0.9354635277282152	0.4781126868260564	-0.6432194850276078	-22.001289824956665	3.7924786952255323	4.056494885304306	-6.74485449954364	11.719293647687884	-0.11772738117672155	0.17625179758210024	-16.264783435587784	-3.432906834060465	-7.15046878580832
0.667	2.8929187020943097	2.450966428686363	2.8171164465458736	0.17979238817840615	1.5157686418262855	0.37253911531144857	21.496330710391348	-4.106414540663621	-6.301728120888721	-9.936390530954544	-1.2035052265914337	0.10667876273002644	-0.513870109330345	-21.44847623449573	3.092437631881043	4.940466581509349	-8.362651392163023	11.762813408742305	0.37604413560049266	0.45021867128791077	-16.08920486026684	-2.2576559315913234	-6.643707573495957
0.683	3.8057209352948234	1.9236554585710808	2.2328322985303903	0.013774610897313133	0.901322910818564	0.3199841408701052	22.26778420622783	-4.888796050871386	-6.483542963339845	-13.044032983706325	-1.5633320121251537	0.14109702465111293	0.828606627078506	-22.039337713216902	2.6433703718297945	5.641086516115031	-12.580664850364148	11.984362105410966	0.7792859378634611	-0.11707595758054168	-15.701511967444041	-2.171138811591398	-6.177015422536058
0.7	3.4520957591123533	2.6057028861484057	3.2102173678388604	0.5032511650285512	0.7347288236020315	0.8343974221262964	21.84794922271474	-4.503661204491555	-5.481811328456628	-16.946757753939412	-2.0464315890873888	-0.6388393798579137	0.6142880620690425	-20.67337482322408	3.0848621180686027	4.281998780151654	-15.679450769472819	11.348077914755793	0.22177800245895896	-0.4651354318240968	-16.720959978863352	-1.6647909260682403	-7.247210078196103
0.717	4.446429379501929	0.8185093261312677	2.6846648830004187	1.247431603430191	0.8133881926703672	0.762933545713167	23.371681478612746	-3.8869924193388914	-5.864192315392927	-18.697252569840728	-1.3230940812572014	0.10220541505911772	-0.2629398424023834	-20.645376490243116	2.260539277987892	5.845646694183212	-20.42401064840992	10.018199085068355	0.147152198485391	-0.046061981256729743	-16.158689888202424	-0.8960816589770496	-6.788157245334839
0.733	4.942918395784929	1.6079482458838825	2.7254018297207425	0.3635307903047258	0.15436412149733636	-0.629445898767986	20.399184553226597	-4.338102708597015	-5.5773849587859035	-21.355745750406367	-1.6162083856069538	0.15498324003746625	0.27930578717927285	-18.836142495802612	1.8800074212125921	3.4784061905194346	-26.48239652807579	9.025309022526038	0.6633217007084278	-0.40492811724279704	-15.867829395258108	0.6492559334102297	-7.284327701276906
0.75	4.597184613228693	1.2016388458504093	3.3983889170941297	0.7150027087679554	1.45397980677665	-0.07637099990541674	20.391632693260743	-3.6243745375318555	-6.9025357743389675	-22.37675313363604	-0.2818626933794619	0.11973417973617181	-0.10425130917608008	-15.804926494865255	1.465819003227102	4.187287960080569	-32.44192271950173	5.675909409596195	0.22897254068312609	0.28887030925386004	-14.87771624514153	0.5556037293407381	-7.042817539922005
0.767	4.067440368292353	0.5301137104074852	3.5509840250637126	1.7220540416381025	1.1087582278986892	-0.4802946044682638	19.335660411782666	-3.059302282980355	-6.347323752084686	-22.957018074694304	1.228784860399878	0.2630063782693819	0.25532906843209985	-12.790527458666896	0.24998309015293302	1.9460449702469447	-38.51635246177803	2.8506202387457416	0.8678671626194508	-0.6193595045131347	-15.702702080410722	1.5917451464996364	-7.026928300019239
